<svg id="Layer_1" data-name="Layer 1" xmlns="http://www.w3.org/2000/svg" xmlns:xlink="http://www.w3.org/1999/xlink" viewBox="0 0 214.07 165"><defs><style>.cls-1{fill:url(#linear-gradient);}.cls-2{fill:#4bc3ce;}.cls-3{fill:#f68b2f;}.cls-4{fill:#fff;}</style><linearGradient id="linear-gradient" x1="211.16" y1="67.14" x2="211.16" y2="114.11" gradientUnits="userSpaceOnUse"><stop offset="0" stop-color="#f68b2f"/><stop offset="0.01" stop-color="#f38b30"/><stop offset="0.38" stop-color="#8e8b61"/><stop offset="0.68" stop-color="#438a85"/><stop offset="0.89" stop-color="#158a9b"/><stop offset="1" stop-color="#038aa4"/></linearGradient></defs><path class="cls-1" d="M206.44,71.86a4.72,4.72,0,1,0,4.72-4.72A4.72,4.72,0,0,0,206.44,71.86Zm8.16,34.29a19.51,19.51,0,0,1-2.2-2.6,8.48,8.48,0,0,1,0-7.19,18.89,18.89,0,0,1,2.2-2.6,1.16,1.16,0,0,0,.11-.16,4.72,4.72,0,1,0-7,.14s0,0,0,0h0l.1.11a12.7,12.7,0,0,1,2,2.48,9.58,9.58,0,0,1,.76,3.59,7.52,7.52,0,0,1-.76,3.6,22.31,22.31,0,0,1-2,2.49l-.09.09v0l0,0a4.72,4.72,0,1,0,7,.14A1.16,1.16,0,0,0,214.6,106.15Z" transform="translate(-99.66 -57.7)"/><path class="cls-2" d="M187.89,104.67a4.72,4.72,0,1,1-4.72,4.72A4.73,4.73,0,0,1,187.89,104.67Z" transform="translate(-99.66 -57.7)"/><path class="cls-2" d="M229.72,109.39a4.72,4.72,0,1,0,4.72-4.72A4.72,4.72,0,0,0,229.72,109.39Z" transform="translate(-99.66 -57.7)"/><path class="cls-2" d="M200.76,115.59l0,0-.09-.1a13.49,13.49,0,0,1-2-2.48,9.61,9.61,0,0,1-.76-3.6,7.49,7.49,0,0,1,.76-3.59,20.49,20.49,0,0,1,2-2.49l.07-.09,0,0s0,0,0,0a4.68,4.68,0,0,0,0-6.46h0l-.12-.12a13.22,13.22,0,0,1-2-2.47,9.61,9.61,0,0,1-.76-3.6,7.49,7.49,0,0,1,.76-3.59,12.89,12.89,0,0,1,1.29-1.7,4.68,4.68,0,0,0,.93-7,.83.83,0,0,0-.12-.16,19.49,19.49,0,0,1-2.19-2.6,6.38,6.38,0,0,1-.81-3.6,6.35,6.35,0,0,1,.81-3.59,19,19,0,0,1,2.19-2.61.83.83,0,0,0,.12-.16,4.72,4.72,0,1,0-7,.14s0,0,0,0l0,0,.1.11a12.69,12.69,0,0,1,2,2.48,9.58,9.58,0,0,1,.76,3.59,7.4,7.4,0,0,1-.76,3.6A21.22,21.22,0,0,1,194,78l-.08.09,0,0h0a4.7,4.7,0,0,0,.88,7.2,9.8,9.8,0,0,1,1.31,1.65,6.42,6.42,0,0,1,.8,3.59,6.45,6.45,0,0,1-.8,3.6,19.51,19.51,0,0,1-2.2,2.6.76.76,0,0,0-.11.16,4.65,4.65,0,0,0,0,6.17,1.16,1.16,0,0,0,.11.16,18.89,18.89,0,0,1,2.2,2.6,8.38,8.38,0,0,1,0,7.19,19.51,19.51,0,0,1-2.2,2.6,1.16,1.16,0,0,0-.11.16,4.72,4.72,0,1,0,7-.13Z" transform="translate(-99.66 -57.7)"/><path class="cls-2" d="M228.43,115.59a18.22,18.22,0,0,1-2.2-2.6,6.36,6.36,0,0,1-.81-3.6,6.43,6.43,0,0,1,.81-3.59,18.22,18.22,0,0,1,2.2-2.6,1.63,1.63,0,0,0,.11-.17,4.65,4.65,0,0,0,1.17-3.08,4.72,4.72,0,0,0-2.26-4,10.78,10.78,0,0,1-1.37-1.71,6.42,6.42,0,0,1-.8-3.59,6.45,6.45,0,0,1,.8-3.6,11,11,0,0,1,1.39-1.73,4.68,4.68,0,0,0,1.06-7.1.72.72,0,0,0-.11-.15,19.49,19.49,0,0,1-2.19-2.6,6.38,6.38,0,0,1-.81-3.6,6.35,6.35,0,0,1,.81-3.59,19,19,0,0,1,2.19-2.61.61.61,0,0,0,.12-.16,4.65,4.65,0,0,0,1.17-3.08,4.72,4.72,0,0,0-9.44,0,4.66,4.66,0,0,0,1.28,3.21l0,0,0,0,.1.1a12.76,12.76,0,0,1,2,2.48,9.58,9.58,0,0,1,.76,3.59,7.4,7.4,0,0,1-.76,3.6,21.43,21.43,0,0,1-2,2.49.27.27,0,0,0-.07.08l0,0,0,0a4.7,4.7,0,0,0-.26,6.15,1,1,0,0,0,.14.21,14.4,14.4,0,0,1,2.08,2.6,9.61,9.61,0,0,1,.76,3.6,7.49,7.49,0,0,1-.76,3.59,23.29,23.29,0,0,1-2.08,2.6.9.9,0,0,0-.15.23,4.71,4.71,0,0,0-1,2.89,4.65,4.65,0,0,0,1.29,3.23v0h0a1.14,1.14,0,0,0,.11.11,13,13,0,0,1,2,2.48,9.58,9.58,0,0,1,.76,3.59,7.39,7.39,0,0,1-.76,3.6,19.86,19.86,0,0,1-2,2.48,4.72,4.72,0,1,0,6.79.18A.21.21,0,0,1,228.43,115.59Z" transform="translate(-99.66 -57.7)"/><path class="cls-2" d="M247.35,94.61a18.22,18.22,0,0,1-2.2-2.6,6.35,6.35,0,0,1-.81-3.59,6.38,6.38,0,0,1,.81-3.6,9.77,9.77,0,0,1,1.31-1.64,4.72,4.72,0,1,0-7.27-4,4.68,4.68,0,0,0,2.18,4,8.66,8.66,0,0,1,1.2,1.65,9.61,9.61,0,0,1,.76,3.6,7.35,7.35,0,0,1-.76,3.59,22.44,22.44,0,0,1-2,2.5.46.46,0,0,0-.07.07l0,0s0,0,0,0a4.65,4.65,0,0,0-1.29,3.22,4.72,4.72,0,1,0,8.27-3.09Z" transform="translate(-99.66 -57.7)"/><path class="cls-2" d="M190.45,86.55a9.42,9.42,0,0,1-1.32-1.65,6.38,6.38,0,0,1-.81-3.6,6.35,6.35,0,0,1,.81-3.59,19,19,0,0,1,2.19-2.61.83.83,0,0,0,.12-.16,4.71,4.71,0,1,0-7,.15h0v0l.11.11a12.69,12.69,0,0,1,2,2.48,9.58,9.58,0,0,1,.76,3.59,7.4,7.4,0,0,1-.76,3.6,13.62,13.62,0,0,1-1.29,1.69,4.72,4.72,0,1,0,5.19,0Z" transform="translate(-99.66 -57.7)"/><path class="cls-2" d="M181.85,96.71a19.49,19.49,0,0,1-2.19-2.6,6.38,6.38,0,0,1-.81-3.6,6.35,6.35,0,0,1,.81-3.59A9.1,9.1,0,0,1,181,85.26a4.72,4.72,0,1,0-5.1,0,8.36,8.36,0,0,1,1.2,1.65,9.58,9.58,0,0,1,.76,3.59,7.4,7.4,0,0,1-.76,3.6,21.43,21.43,0,0,1-2,2.49.6.6,0,0,1-.08.08l0,0s0,0,0,0A4.65,4.65,0,0,0,173.7,100a4.72,4.72,0,1,0,9.44,0A4.64,4.64,0,0,0,182,96.87.51.51,0,0,0,181.85,96.71Z" transform="translate(-99.66 -57.7)"/><path class="cls-2" d="M237,86.54a8.2,8.2,0,0,1-1.2-1.64,9.5,9.5,0,0,1-.77-3.6,7.43,7.43,0,0,1,.77-3.59,20.74,20.74,0,0,1,2-2.5l.06-.07,0,0,0,0a4.73,4.73,0,1,0-7-.14.91.91,0,0,0,.11.16,18.34,18.34,0,0,1,2.2,2.61A6.52,6.52,0,0,1,234,81.3a6.55,6.55,0,0,1-.81,3.6,9.42,9.42,0,0,1-1.32,1.65,4.72,4.72,0,1,0,5.1,0Z" transform="translate(-99.66 -57.7)"/><path class="cls-3" d="M137.57,172.64l-1.81,5.2a2.45,2.45,0,0,1-2.4,1.81,2.69,2.69,0,0,1-3-2.53,3.9,3.9,0,0,1,.18-1l8.74-24.75c.5-1.27,1.09-2.22,2.76-2.22h1.36c1.63,0,2.31.9,2.76,2.22L155,176.12a2.32,2.32,0,0,1,.18.95,2.84,2.84,0,0,1-3.08,2.58,2.46,2.46,0,0,1-2.35-1.85l-1.9-5.16Zm5.07-14.71-3.26,9.69h6.7c-1.09-3.17-2.13-6.43-3.26-9.69Z" transform="translate(-99.66 -57.7)"/><path class="cls-3" d="M165.77,177.12V151.41c0-1.72.86-2.49,2.72-2.49s2.67.77,2.67,2.49v25.71c0,1.76-.86,2.49-2.67,2.49S165.77,178.88,165.77,177.12Z" transform="translate(-99.66 -57.7)"/><path class="cls-2" d="M193.11,179.38c-4.66,0-7.24-2-7.24-7.15V160.87h-2.71c-.41,0-.91-.22-.91-1.13s.54-1.18.91-1.18h2.71v-7c0-.5.27-.91,1.13-.91s1.22.46,1.22.91v7h5.35c.36,0,.9.32.9,1.18s-.5,1.13-.9,1.13h-5.3V172.1c0,3.71,1.95,4.88,4.66,4.88h2.35c.46,0,.91.37.91,1.23s-.41,1.17-.91,1.17Z" transform="translate(-99.66 -57.7)"/><path class="cls-2" d="M207.64,170.42v1.4c0,3.76,2.63,5.16,5.25,5.16h6.57c.45,0,.95.23.95,1.14s-.59,1.26-.95,1.26h-6.61c-4.26,0-7.6-2.71-7.6-7.56V166.3c0-4.93,3.66-7.69,8.14-7.69h1.13a7.35,7.35,0,0,1,7.7,7.69V169a1.35,1.35,0,0,1-1.4,1.45Zm12.18-4.12c0-3.84-2.63-5.29-5.34-5.29h-1.59a4.92,4.92,0,0,0-5.25,5.29v1.81h12.18Z" transform="translate(-99.66 -57.7)"/><path class="cls-2" d="M250.33,177.93c0,.95-.54,1.45-1.09,1.45H238c-3,0-5.34-2.26-5.34-5.88v-.63a5.51,5.51,0,0,1,5.8-5.66H248v-1.09c0-3.71-2.18-5.11-5.25-5.11H236.8a1,1,0,0,1-.91-1.09c0-.9.59-1.27.91-1.27h6c4.84,0,7.56,2.67,7.56,7.47Zm-11.9-8.37A3.34,3.34,0,0,0,235,173v.49a3.31,3.31,0,0,0,3.35,3.53h9.55v-7.42Z" transform="translate(-99.66 -57.7)"/><path class="cls-2" d="M287.4,178.66c0,.5-.36,1-1.22,1s-1.18-.45-1.18-1V166.3c0-3.84-2.62-5.29-5.34-5.29h-4.12v17.65c0,.5-.36,1-1.22,1s-1.18-.41-1.18-1V161h-8.87v17.65c0,.59-.31,1-1.17,1s-1.23-.45-1.23-1v-18.6a1.35,1.35,0,0,1,1.41-1.45h16.43c4.75,0,7.69,2.58,7.69,7.69Z" transform="translate(-99.66 -57.7)"/><path class="cls-4" d="M100.83,195.24l3.68,5.7a2.25,2.25,0,0,1,.35.67v-6.37h1v7.85h-1.16L101,197.3l-.16-.29c0-.1-.1-.2-.14-.3v6.38h-1v-7.85Z" transform="translate(-99.66 -57.7)"/><path class="cls-4" d="M114,195.24l2.94,7.85H115.8l-.83-2.34h-3.09l-.84,2.34h-1.11l2.92-7.85Zm-.59,1.13-1.24,3.46h2.46Z" transform="translate(-99.66 -57.7)"/><path class="cls-4" d="M120.26,196.17v-.93h6v.92h-2.48v6.93h-1.08v-6.92Z" transform="translate(-99.66 -57.7)"/><path class="cls-4" d="M131.57,195.24v7.85h-1.08v-7.85Z" transform="translate(-99.66 -57.7)"/><path class="cls-4" d="M143.57,199.17a5.29,5.29,0,0,1-.25,1.62,4.05,4.05,0,0,1-.72,1.31,3.6,3.6,0,0,1-1.16.88,3.7,3.7,0,0,1-1.55.32,3.84,3.84,0,0,1-1.6-.32,3.5,3.5,0,0,1-1.16-.88,3.87,3.87,0,0,1-.72-1.31,5.29,5.29,0,0,1-.24-1.62,5.09,5.09,0,0,1,.25-1.62,3.82,3.82,0,0,1,.73-1.33,3.57,3.57,0,0,1,1.17-.89,3.87,3.87,0,0,1,1.6-.32,3.76,3.76,0,0,1,1.59.32,3.31,3.31,0,0,1,1.13.89,3.74,3.74,0,0,1,.69,1.33A5.38,5.38,0,0,1,143.57,199.17ZM139.89,196a2.37,2.37,0,0,0-1.16.27,2.46,2.46,0,0,0-.82.71,3,3,0,0,0-.48,1,4.18,4.18,0,0,0-.16,1.17,4.3,4.3,0,0,0,.16,1.18,3,3,0,0,0,.48,1,2.32,2.32,0,0,0,.82.7,2.63,2.63,0,0,0,2.32,0,2.26,2.26,0,0,0,.8-.7,3.35,3.35,0,0,0,.47-1,4.71,4.71,0,0,0,.15-1.18,4.58,4.58,0,0,0-.15-1.17,3.4,3.4,0,0,0-.47-1,2.3,2.3,0,0,0-2-1Z" transform="translate(-99.66 -57.7)"/><path class="cls-4" d="M149.36,195.24l3.68,5.7a2.53,2.53,0,0,1,.36.67v-6.37h1v7.85h-1.17l-3.74-5.79-.16-.29-.14-.3v6.38h-1v-7.85Z" transform="translate(-99.66 -57.7)"/><path class="cls-4" d="M162.57,195.24l2.93,7.85h-1.17l-.83-2.34h-3.09l-.84,2.34h-1.11l2.92-7.85Zm-.6,1.13-1.24,3.46h2.46Z" transform="translate(-99.66 -57.7)"/><path class="cls-4" d="M170.61,195.24v6.87h3.92v1h-5v-7.85Z" transform="translate(-99.66 -57.7)"/><path class="cls-4" d="M185.57,196.75a1.73,1.73,0,0,1,.15-.73,2.06,2.06,0,0,1,.42-.55,2.08,2.08,0,0,1,.62-.35,2.19,2.19,0,0,1,.73-.12,2.1,2.1,0,0,1,.7.12,1.94,1.94,0,0,1,.58.33,1.58,1.58,0,0,1,.41.54,1.72,1.72,0,0,1,0,1.36,2.39,2.39,0,0,1-.32.56,3.05,3.05,0,0,1-.48.47,4.91,4.91,0,0,1-.55.38l1.48,1.8a2.59,2.59,0,0,0,.21-.63c0-.22.08-.44.11-.67h.92a4.33,4.33,0,0,1-.16,1.07,3.68,3.68,0,0,1-.45,1l1.48,1.77h-1.31l-.78-1a2.67,2.67,0,0,1-.48.47,3.67,3.67,0,0,1-.6.36,3.58,3.58,0,0,1-.65.23,3.14,3.14,0,0,1-.67.08,2.6,2.6,0,0,1-.93-.17,2.22,2.22,0,0,1-.75-.47,2.16,2.16,0,0,1-.5-.72,2.34,2.34,0,0,1-.18-.93,2,2,0,0,1,.15-.8,2.72,2.72,0,0,1,.42-.64,3.72,3.72,0,0,1,.59-.52c.22-.16.45-.31.68-.45a5.29,5.29,0,0,1-.6-.83A1.88,1.88,0,0,1,185.57,196.75Zm0,4.18a1.47,1.47,0,0,0,.11.56,1.45,1.45,0,0,0,.77.77,1.47,1.47,0,0,0,.56.11,1.92,1.92,0,0,0,1-.25,2.63,2.63,0,0,0,.8-.65L187,199.2c-.16.1-.32.2-.48.32a2.6,2.6,0,0,0-.43.38,1.77,1.77,0,0,0-.31.46A1.32,1.32,0,0,0,185.61,200.93Zm2.8-4.19a.9.9,0,0,0-.26-.68.87.87,0,0,0-.66-.27,1,1,0,0,0-.71.27.87.87,0,0,0-.3.68,1.26,1.26,0,0,0,.08.43,2.4,2.4,0,0,0,.2.39,2.88,2.88,0,0,0,.27.34l.29.31a3.6,3.6,0,0,0,.4-.28,2.2,2.2,0,0,0,.35-.33,1.36,1.36,0,0,0,.25-.39A1.19,1.19,0,0,0,188.41,196.74Z" transform="translate(-99.66 -57.7)"/><path class="cls-4" d="M202.84,195.24V199l3.79-3.79h1.42l-3.21,3.13,3.29,4.72h-1.32l-2.76-4-1.21,1.21v2.74h-1.07v-7.85Z" transform="translate(-99.66 -57.7)"/><path class="cls-4" d="M215.22,195.24l2.93,7.85H217l-.84-2.34h-3.09l-.84,2.34h-1.11l2.92-7.85Zm-.6,1.13-1.23,3.46h2.45Z" transform="translate(-99.66 -57.7)"/><path class="cls-4" d="M224.8,195.24h.67a2.93,2.93,0,0,1,1,.14,1.84,1.84,0,0,1,1.21,1.12,2.43,2.43,0,0,1,.18,1,2.53,2.53,0,0,1-.12.77,2,2,0,0,1-.33.68,2.22,2.22,0,0,1-.54.52,2,2,0,0,1-.75.28q-.3,0-.6.06h-2.22v3.3h-1.09v-7.85Zm.88,3.54a1.4,1.4,0,0,0,.54-.2,1,1,0,0,0,.37-.39,1.26,1.26,0,0,0,.14-.62,1.32,1.32,0,0,0-.13-.62,1.18,1.18,0,0,0-.35-.44,1.22,1.22,0,0,0-.51-.25,2.13,2.13,0,0,0-.63-.09h-1.85v2.67h1.8A3.18,3.18,0,0,0,225.68,198.78Z" transform="translate(-99.66 -57.7)"/><path class="cls-4" d="M239.36,199.17a5,5,0,0,1-.25,1.62,3.71,3.71,0,0,1-.72,1.31,3.5,3.5,0,0,1-1.16.88,3.62,3.62,0,0,1-1.54.32,3.81,3.81,0,0,1-1.6-.32,3.4,3.4,0,0,1-1.16-.88,3.71,3.71,0,0,1-.72-1.31,5.29,5.29,0,0,1-.24-1.62,5.38,5.38,0,0,1,.24-1.62,4,4,0,0,1,.73-1.33,3.5,3.5,0,0,1,1.18-.89,3.81,3.81,0,0,1,1.6-.32,3.71,3.71,0,0,1,1.58.32,3.35,3.35,0,0,1,1.14.89,4.1,4.1,0,0,1,.69,1.33A5.71,5.71,0,0,1,239.36,199.17ZM235.69,196a2.41,2.41,0,0,0-1.17.27,2.56,2.56,0,0,0-.82.71,3.42,3.42,0,0,0-.48,1,4.58,4.58,0,0,0-.15,1.17,4.71,4.71,0,0,0,.15,1.18,3.37,3.37,0,0,0,.48,1,2.4,2.4,0,0,0,2,1,2.33,2.33,0,0,0,1.15-.27,2.29,2.29,0,0,0,.81-.7,3.1,3.1,0,0,0,.46-1,4.71,4.71,0,0,0,.15-1.18,4.58,4.58,0,0,0-.15-1.17,3.16,3.16,0,0,0-.46-1,2.42,2.42,0,0,0-.81-.71A2.33,2.33,0,0,0,235.69,196Z" transform="translate(-99.66 -57.7)"/><path class="cls-4" d="M247,195.24a3.7,3.7,0,0,1,1.53.28,2.8,2.8,0,0,1,1.05.8,3.4,3.4,0,0,1,.6,1.22,5.79,5.79,0,0,1,.2,1.54,5.91,5.91,0,0,1-.2,1.54,3.81,3.81,0,0,1-.62,1.28,3,3,0,0,1-1.07.87,3.33,3.33,0,0,1-1.54.32h-3v-7.85Zm-1.94,6.89h1.85a2.29,2.29,0,0,0,1.12-.25,2.13,2.13,0,0,0,.73-.67,2.47,2.47,0,0,0,.41-1,4.58,4.58,0,0,0,.13-1.12,5.12,5.12,0,0,0-.13-1.12,3,3,0,0,0-.41-1,2.05,2.05,0,0,0-.74-.66,2.28,2.28,0,0,0-1.11-.26h-1.85Z" transform="translate(-99.66 -57.7)"/><path class="cls-4" d="M256.08,195.24v7.85H255v-7.85Z" transform="translate(-99.66 -57.7)"/><path class="cls-4" d="M261.71,200.74a2,2,0,0,0,0,.24,1.3,1.3,0,0,0,.27.62,1.68,1.68,0,0,0,.48.44,2.12,2.12,0,0,0,.62.25,2.72,2.72,0,0,0,1.31,0,2,2,0,0,0,.62-.25,1.39,1.39,0,0,0,.47-.43,1.07,1.07,0,0,0,.18-.63,1,1,0,0,0-.13-.51,1.23,1.23,0,0,0-.34-.38,1.86,1.86,0,0,0-.46-.25,3,3,0,0,0-.49-.14l-1.24-.3a5.22,5.22,0,0,1-.79-.26,2.52,2.52,0,0,1-.68-.39,2,2,0,0,1-.48-.59,1.86,1.86,0,0,1-.17-.81,2.08,2.08,0,0,1,.24-1,2.33,2.33,0,0,1,.63-.73,2.7,2.7,0,0,1,.9-.44,3.62,3.62,0,0,1,1-.15,3.48,3.48,0,0,1,1.1.16,2.58,2.58,0,0,1,.88.48,2.32,2.32,0,0,1,.58.79,2.69,2.69,0,0,1,.24,1.09h-1a1.66,1.66,0,0,0-.57-1.21,2,2,0,0,0-1.31-.4,2.46,2.46,0,0,0-.6.07,1.76,1.76,0,0,0-.55.22,1.27,1.27,0,0,0-.39.41,1,1,0,0,0-.16.59.87.87,0,0,0,.21.61,1.52,1.52,0,0,0,.55.39,4.62,4.62,0,0,0,.77.26l.89.2c.3.07.6.15.89.24a3.07,3.07,0,0,1,.77.38,2,2,0,0,1,.55.6,1.88,1.88,0,0,1,.21.93,2.22,2.22,0,0,1-.26,1.09,2.39,2.39,0,0,1-.68.77,3.05,3.05,0,0,1-1,.46,4.06,4.06,0,0,1-1.1.15,4,4,0,0,1-1.22-.18,2.65,2.65,0,0,1-1-.53,2.27,2.27,0,0,1-.65-.87,3,3,0,0,1-.26-1.21h1C261.68,200.58,261.7,200.66,261.71,200.74Z" transform="translate(-99.66 -57.7)"/><path class="cls-4" d="M270.57,196.17v-.93h6v.92h-2.48v6.93h-1.08v-6.92Z" transform="translate(-99.66 -57.7)"/><path class="cls-4" d="M284.89,195.33a2.27,2.27,0,0,1,.86.33,1.77,1.77,0,0,1,.6.67,2.35,2.35,0,0,1,.22,1.06,2.07,2.07,0,0,1-.27,1.07,1.76,1.76,0,0,1-.81.73,1.59,1.59,0,0,1,.43.23,1.19,1.19,0,0,1,.26.34,2,2,0,0,1,.14.43c0,.15.05.31.08.48l.07,1.28a1.82,1.82,0,0,0,.08.52.77.77,0,0,0,.29.42v.2h-1.23a1.33,1.33,0,0,1-.19-.56c0-.22,0-.45,0-.69s0-.48,0-.72a2.53,2.53,0,0,0-.1-.65,1.16,1.16,0,0,0-.3-.5,1,1,0,0,0-.63-.23h-2.48v3.36h-1.08v-7.85h3.07A5.87,5.87,0,0,1,284.89,195.33Zm-1.22,3.49a3.68,3.68,0,0,0,.66-.06,1.77,1.77,0,0,0,.57-.21,1.1,1.1,0,0,0,.41-.42,1.22,1.22,0,0,0,.16-.66,1.41,1.41,0,0,0-.07-.45,1.38,1.38,0,0,0-.18-.41,1,1,0,0,0-.32-.31,1.24,1.24,0,0,0-.46-.14h-2.6v2.68Z" transform="translate(-99.66 -57.7)"/><path class="cls-4" d="M292.39,195.24v7.85h-1.08v-7.85Z" transform="translate(-99.66 -57.7)"/><path class="cls-4" d="M300.56,195.24l2.93,7.85h-1.17l-.82-2.34h-3.1l-.84,2.34h-1.11l2.92-7.85Zm-.6,1.13-1.23,3.46h2.45Z" transform="translate(-99.66 -57.7)"/><path class="cls-4" d="M308.68,195.24l3.68,5.7a2.53,2.53,0,0,1,.36.67v-6.37h1v7.85h-1.17l-3.74-5.79-.16-.29-.14-.3v6.38h-1v-7.85Z" transform="translate(-99.66 -57.7)"/><path class="cls-4" d="M117.94,214.64v4.88a3,3,0,0,0,.12.88,1.89,1.89,0,0,0,.36.69,1.6,1.6,0,0,0,.61.44,2.21,2.21,0,0,0,.89.16,1.92,1.92,0,0,0,1.54-.59,2.37,2.37,0,0,0,.5-1.58v-4.88h1.09v4.87a3.77,3.77,0,0,1-.22,1.34,2.84,2.84,0,0,1-.63,1,2.89,2.89,0,0,1-1,.63,3.49,3.49,0,0,1-1.29.22,2.88,2.88,0,0,1-2.3-.85,3.43,3.43,0,0,1-.75-2.34v-4.87Z" transform="translate(-99.66 -57.7)"/><path class="cls-4" d="M129.1,214.64l3.67,5.7a2.53,2.53,0,0,1,.36.67v-6.37h1v7.86H133l-3.74-5.8c-.06-.1-.12-.19-.17-.29l-.14-.3v6.39h-1v-7.86Z" transform="translate(-99.66 -57.7)"/><path class="cls-4" d="M140.16,214.64v7.86h-1.07v-7.86Z" transform="translate(-99.66 -57.7)"/><path class="cls-4" d="M145.37,214.64l2.26,6.57,2.2-6.57H151l-2.77,7.86h-1.12l-2.8-7.86Z" transform="translate(-99.66 -57.7)"/><path class="cls-4" d="M160.64,214.64v1h-4.55V218h4.19v.91h-4.19v2.66h4.64v1H155v-7.86Z" transform="translate(-99.66 -57.7)"/><path class="cls-4" d="M169.35,214.73a2.39,2.39,0,0,1,.87.33,1.83,1.83,0,0,1,.59.67,2.22,2.22,0,0,1,.22,1.06,2.17,2.17,0,0,1-.26,1.07,1.86,1.86,0,0,1-.81.73,1.22,1.22,0,0,1,.42.24,1,1,0,0,1,.26.34,1.16,1.16,0,0,1,.14.42c0,.16.06.31.08.48l.08,1.28a1.77,1.77,0,0,0,.07.52.82.82,0,0,0,.29.42v.21h-1.23a1.42,1.42,0,0,1-.19-.57c0-.22,0-.45,0-.69s0-.48,0-.72a2.52,2.52,0,0,0-.11-.65,1.16,1.16,0,0,0-.3-.5,1.07,1.07,0,0,0-.63-.23h-2.48v3.37h-1.08v-7.86h3.08A5.83,5.83,0,0,1,169.35,214.73Zm-1.22,3.49a3.52,3.52,0,0,0,.66-.06,1.74,1.74,0,0,0,.58-.21,1.18,1.18,0,0,0,.41-.42,1.29,1.29,0,0,0,.15-.66,1.74,1.74,0,0,0-.06-.45,1.4,1.4,0,0,0-.19-.41.84.84,0,0,0-.32-.3,1,1,0,0,0-.45-.14l-.4,0H166.3v2.68Z" transform="translate(-99.66 -57.7)"/><path class="cls-4" d="M176.45,220.14a2,2,0,0,0,0,.24,1.3,1.3,0,0,0,.27.62,1.68,1.68,0,0,0,.48.44,2.12,2.12,0,0,0,.62.25,2.72,2.72,0,0,0,1.31,0,2,2,0,0,0,.62-.25,1.39,1.39,0,0,0,.47-.43,1.07,1.07,0,0,0,.18-.63,1,1,0,0,0-.13-.51,1.23,1.23,0,0,0-.34-.38,2.46,2.46,0,0,0-.45-.25,3.43,3.43,0,0,0-.5-.14l-1.24-.3a5.22,5.22,0,0,1-.79-.26,2.52,2.52,0,0,1-.68-.39,1.84,1.84,0,0,1-.48-.59,1.86,1.86,0,0,1-.17-.81,2.08,2.08,0,0,1,.24-1,2.24,2.24,0,0,1,.64-.73,2.52,2.52,0,0,1,.9-.44,3.5,3.5,0,0,1,1-.15,3.79,3.79,0,0,1,1.1.16,2.58,2.58,0,0,1,.88.48,2.36,2.36,0,0,1,.58.8,2.6,2.6,0,0,1,.24,1.08h-1a1.66,1.66,0,0,0-.57-1.21,2,2,0,0,0-1.31-.4,2.46,2.46,0,0,0-.6.07,1.76,1.76,0,0,0-.55.22,1.27,1.27,0,0,0-.39.41,1,1,0,0,0-.16.59.91.91,0,0,0,.21.62,1.63,1.63,0,0,0,.55.38,4.62,4.62,0,0,0,.77.26l.89.2c.3.07.6.15.89.24a3.07,3.07,0,0,1,.77.38,1.86,1.86,0,0,1,.55.6,1.88,1.88,0,0,1,.21.93,2.22,2.22,0,0,1-.26,1.09,2.29,2.29,0,0,1-.68.77,2.85,2.85,0,0,1-1,.46,4.06,4.06,0,0,1-1.1.15,4,4,0,0,1-1.22-.18,2.73,2.73,0,0,1-1-.53,2.27,2.27,0,0,1-.65-.87,3,3,0,0,1-.26-1.21h1A2,2,0,0,1,176.45,220.14Z" transform="translate(-99.66 -57.7)"/><path class="cls-4" d="M187.15,214.64v7.86h-1.08v-7.86Z" transform="translate(-99.66 -57.7)"/><path class="cls-4" d="M191.35,215.58v-.94h6v.93h-2.47v6.93h-1.08v-6.92Z" transform="translate(-99.66 -57.7)"/><path class="cls-4" d="M203.53,219.36l-2.92-4.72H202l2.1,3.72,2.08-3.72h1.27l-2.8,4.62v3.24h-1.09Z" transform="translate(-99.66 -57.7)"/><path class="cls-4" d="M224.69,218.57a5.29,5.29,0,0,1-.25,1.62,4.05,4.05,0,0,1-.72,1.31,3.6,3.6,0,0,1-1.16.88,3.67,3.67,0,0,1-1.55.32,3.79,3.79,0,0,1-1.59-.32,3.54,3.54,0,0,1-1.17-.88,4.05,4.05,0,0,1-.72-1.31,5.29,5.29,0,0,1-.24-1.62,5.09,5.09,0,0,1,.25-1.62,4,4,0,0,1,.73-1.33,3.41,3.41,0,0,1,1.17-.88,3.72,3.72,0,0,1,1.6-.33,3.61,3.61,0,0,1,1.59.33,3.17,3.17,0,0,1,1.13.88,3.74,3.74,0,0,1,.69,1.33A5.38,5.38,0,0,1,224.69,218.57ZM221,215.39a2.39,2.39,0,0,0-1.16.27,2.46,2.46,0,0,0-.82.71,3,3,0,0,0-.48,1,4.18,4.18,0,0,0-.16,1.17,4.25,4.25,0,0,0,.16,1.18,2.86,2.86,0,0,0,.48,1,2.32,2.32,0,0,0,.82.7,2.39,2.39,0,0,0,1.16.27,2.37,2.37,0,0,0,1.16-.27,2.26,2.26,0,0,0,.8-.7,3,3,0,0,0,.47-1,4.66,4.66,0,0,0,.15-1.18,4.58,4.58,0,0,0-.15-1.17,3.18,3.18,0,0,0-.47-1,2.3,2.3,0,0,0-2-1Z" transform="translate(-99.66 -57.7)"/><path class="cls-4" d="M234.61,214.64v1H230.4V218h3.67v1H230.4v3.56h-1.09v-7.86Z" transform="translate(-99.66 -57.7)"/><path class="cls-4" d="M248.4,214.64l2.93,7.86h-1.17l-.83-2.35h-3.09l-.84,2.35h-1.11l2.92-7.86Zm-.6,1.13-1.24,3.46H249Z" transform="translate(-99.66 -57.7)"/><path class="cls-4" d="M254.63,215.58v-.94h6v.93h-2.48v6.93h-1.07v-6.92Z" transform="translate(-99.66 -57.7)"/><path class="cls-4" d="M265.91,214.64v3.21H270v-3.21h1.05v7.86H270v-3.69h-4.09v3.69h-1.09v-7.86Z" transform="translate(-99.66 -57.7)"/><path class="cls-4" d="M281.59,214.64v1H277V218h4.19v.91H277v2.66h4.64v1H276v-7.86Z" transform="translate(-99.66 -57.7)"/><path class="cls-4" d="M287.36,214.64l3.68,5.7a2.25,2.25,0,0,1,.35.67v-6.37h1v7.86h-1.16l-3.74-5.8-.16-.29a2.75,2.75,0,0,1-.14-.3v6.39h-1v-7.86Z" transform="translate(-99.66 -57.7)"/><path class="cls-4" d="M298,220.14a2,2,0,0,1,0,.24,1.52,1.52,0,0,0,.27.62,1.87,1.87,0,0,0,.49.44,2.06,2.06,0,0,0,.61.25,2.56,2.56,0,0,0,.67.08,2.51,2.51,0,0,0,.65-.08,2.07,2.07,0,0,0,.62-.25,1.35,1.35,0,0,0,.46-.43,1,1,0,0,0,.19-.63,1,1,0,0,0-.13-.51,1.37,1.37,0,0,0-.34-.38,2.25,2.25,0,0,0-.46-.25,2.85,2.85,0,0,0-.5-.14l-1.23-.3a5.34,5.34,0,0,1-.8-.26,2.68,2.68,0,0,1-.68-.39,2,2,0,0,1-.47-.59,1.73,1.73,0,0,1-.18-.81,2,2,0,0,1,.25-1,2.33,2.33,0,0,1,.63-.73,2.52,2.52,0,0,1,.9-.44,3.62,3.62,0,0,1,1-.15,3.79,3.79,0,0,1,1.1.16,2.63,2.63,0,0,1,.87.48,2.25,2.25,0,0,1,.59.8,3,3,0,0,1,.24,1.08h-1a1.66,1.66,0,0,0-.57-1.21,2,2,0,0,0-1.3-.4,2.6,2.6,0,0,0-.61.07,1.62,1.62,0,0,0-.54.22,1.42,1.42,0,0,0-.4.41,1.1,1.1,0,0,0-.15.59.91.91,0,0,0,.21.62,1.63,1.63,0,0,0,.55.38,4.33,4.33,0,0,0,.77.26l.89.2c.3.07.6.15.88.24a2.91,2.91,0,0,1,.77.38,1.86,1.86,0,0,1,.55.6,1.88,1.88,0,0,1,.22.93,2.22,2.22,0,0,1-.26,1.09,2.41,2.41,0,0,1-.68.77,2.85,2.85,0,0,1-1,.46,4.11,4.11,0,0,1-1.1.15,4,4,0,0,1-1.22-.18,2.77,2.77,0,0,1-1-.53,2.49,2.49,0,0,1-.65-.87,3.21,3.21,0,0,1-.26-1.21h1Z" transform="translate(-99.66 -57.7)"/></svg>